<svg version="1.1" id="Layer_1" xmlns="http://www.w3.org/2000/svg" x="0" y="0" viewBox="0 0 100 100" xml:space="preserve" fill="#885EC7"><path d="M83.6 20.2l4.7 1.3c.9.2 2.1-.4 2.3-1.3.2-.9-.4-2.1-1.3-2.2l-12-3.2c-.8-.2-1.3 0-1.9.6s-.6 1.1-.4 1.9l3.4 11.2c.2.8.9 1.3 1.9 1.3h.6c.9-.4 1.5-1.3 1.3-2.3l-1.3-4.7c6.8 7.3 10.5 17.1 10.5 27.2 0 22.7-18.6 41.2-41.2 41.2S8.8 72.7 8.8 50 27.3 8.8 50 8.8c2.6 0 5.2.2 7.9.7.9.2 2.1-.6 2.3-1.5.2-.9-.4-2.1-1.5-2.2-2.9-.6-5.9-.8-8.7-.8C25.2 5 5 25.2 5 50s20.2 45 45 45 45-20.2 45-45c0-11.1-4.1-21.8-11.4-29.8z"/><path d="M76.4 29.2c-.8-.9-1.7-1.9-2.4-2.8-6.2-6.4-14.6-10.2-24-10.2S32.2 20 26 26.4c-.9.9-1.7 1.9-2.4 2.8-4.5 5.6-7.3 12.9-7.3 20.8 0 8.1 2.8 15.4 7.5 21.2.8.9 1.7 1.9 2.6 2.8 6 6 14.4 9.8 23.6 9.8S67.6 80 73.6 74c.9-.9 1.7-1.9 2.4-2.8 4.7-5.8 7.5-13.1 7.5-21.2.3-7.9-2.6-15.2-7.1-20.8zM80 48.1H69.7c-.2-3.9-.9-7.9-2.2-11.4 2.2-1.3 4.5-3 6.6-4.9 3.3 4.7 5.5 10.3 5.9 16.3zM51.9 21.7c4.7 3.6 8.4 8.1 10.7 13.3-3.2 1.5-6.9 2.2-10.7 2.6V21.7zm-3.8 0v15.8c-3.8-.2-7.5-1.1-10.7-2.6 2.3-5.1 6-9.7 10.7-13.2zm0 19.7v6.8h-14c.2-3.4.8-6.6 1.9-9.8 3.7 1.7 7.8 2.6 12.1 3zm0 10.5v7.7c-4.1.2-8.2 1.1-12 2.8C35 59 34.2 55.7 34 52.1l14.1-.2zm0 11.4v15c-4.5-3.4-8.1-7.7-10.5-12.6 3.4-1.5 6.8-2.2 10.5-2.4zm3.8 15v-15c3.8.2 7.1 1.1 10.5 2.4-2.5 4.9-6 9.2-10.5 12.6zm0-18.7v-7.7H66c-.2 3.6-.9 7.1-2.1 10.3-3.8-1.5-7.9-2.4-12-2.6zm0-11.5v-6.8c4.3-.2 8.4-1.1 12.2-2.8 1.1 3 1.7 6.4 1.9 9.7H51.9v-.1zm14-15c-2.2-4.7-5.4-9-9.4-12.4 5.6 1.3 10.9 4.3 14.8 8.2-1.4 1.8-3.3 3.1-5.4 4.2zM43.2 20.8c-3.9 3.6-7.1 7.7-9.4 12.4-1.8-1.2-3.7-2.7-5.4-4.2 4.2-3.9 9.2-6.9 14.8-8.2zM26.2 32c1.9 1.9 4.1 3.4 6.6 4.9-1.3 3.6-2.1 7.5-2.3 11.4H20c.4-6.2 2.6-11.8 6.2-16.3zM20 51.9h10.3c.2 4.1 1.1 8.3 2.4 12-2.3 1.3-4.5 2.8-6.4 4.7-3.5-4.7-5.7-10.5-6.3-16.7zm14.2 15.5c2.3 4.5 5.2 8.4 9 11.8-5.4-1.3-10.5-4.1-14.4-7.9 1.7-1.4 3.6-2.7 5.4-3.9zm22.5 11.8c3.8-3.4 6.7-7.3 9-11.8 1.9 1.1 3.8 2.4 5.4 3.9-4 3.8-8.9 6.6-14.4 7.9zm16.9-10.6c-1.9-1.9-4.1-3.4-6.4-4.7 1.5-3.8 2.2-7.9 2.4-12H80c-.6 6.2-2.8 12-6.4 16.7z"/></svg>