<svg version="1.1" id="Layer_1" xmlns="http://www.w3.org/2000/svg" x="0" y="0" viewBox="0 0 100 100" xml:space="preserve" fill="#885EC7" stroke="#885ec7" stroke-width="2" stroke-linecap="round" stroke-linejoin="round" stroke-miterlimit="10"><path d="M72.1 95H12.6V5h59.5c3.3 0 6.1 2.7 6.1 6.1V89c0 3.3-2.7 6-6.1 6zm-57.5-2h57.5c2.3 0 4.1-1.8 4.1-4.1V11.1c0-2.3-1.8-4.1-4.1-4.1H14.6v86z"/><path d="M68.4 95h-6.8V5h6.8v90zm-4.9-2h2.9V7h-2.9v86zm25.8-66.5H77.2v-1.9h7.4l-3.9-3.9 3.9-4h-7.4v-1.9h12.1l-5.8 5.9z"/><path d="M63.5 31.4H22.4V14.8h41.1v16.6zm-39.1-1.9h37.2V16.7H24.4v12.8zM10.7 9.9h4.9v2h-4.9zm0 9.8h4.9v2h-4.9zm0 9.8h4.9v2h-4.9zm0 9.7h4.9v2h-4.9zm0 9.8h4.9v2h-4.9zm0 9.8h4.9v2h-4.9zm0 9.8h4.9v2h-4.9zm0 9.8h4.9v2h-4.9zm0 9.8h4.9v2h-4.9z"/></svg>