<svg version="1.1" id="Layer_1" xmlns="http://www.w3.org/2000/svg" x="0" y="0" viewBox="0 0 300 300" xml:space="preserve" fill="#885ec7" stroke="#885ec7" stroke-linecap="round" stroke-linejoin="round" stroke-miterlimit="10"><path d="M160.8 190c7.3 0 13.2-5.9 13.2-13.2 0-7.3-5.9-13.2-13.2-13.2-7.3 0-13.2 5.9-13.2 13.2 0 .7.1 1.4.2 2l-24.3 17.7c-2.2-1.8-5-2.8-8.1-2.8-7.3 0-13.2 5.9-13.2 13.2 0 7.3 5.9 13.2 13.2 13.2 3.1 0 5.8-1.1 8.1-2.9l24.4 17.7c-.2.9-.3 1.8-.3 2.7 0 7.3 5.9 13.2 13.2 13.2 7.3 0 13.2-5.9 13.2-13.2 0-7.3-5.9-13.2-13.2-13.2-3.1 0-5.8 1.1-8.1 2.8l-24.4-17.7c.2-.9.3-1.8.3-2.7 0-.9-.1-1.8-.3-2.7l23.9-17.4c2.4 2.1 5.3 3.3 8.6 3.3zm0-17.3c2.3 0 4.2 1.9 4.2 4.2 0 2.3-1.9 4.2-4.2 4.2-2.3 0-4.2-1.9-4.2-4.2.1-2.3 1.9-4.2 4.2-4.2zm-45.3 38.4c-2.3 0-4.2-1.9-4.2-4.2 0-2.3 1.9-4.2 4.2-4.2 2.3 0 4.2 1.9 4.2 4.2-.1 2.3-1.9 4.2-4.2 4.2zm45.3 22.4c2.3 0 4.2 1.9 4.2 4.2s-1.9 4.2-4.2 4.2c-2.3 0-4.2-1.9-4.2-4.2s1.9-4.2 4.2-4.2zm71.8-113.2l-25.9 23.9c-1.8 1.7-1.9 4.5-.2 6.4.9 1 2.1 1.4 3.3 1.4 1.1 0 2.2-.4 3.1-1.2l23-21.3 13.4 10.7c1.9 1.6 4.8 1.2 6.3-.7s1.2-4.8-.7-6.3l-16.5-13.1c-1.6-1.4-4.1-1.3-5.8.2zM115 78.5c-1.6-1.6-4.2-1.7-5.9-.3l-72.2 57.7c-1.9 1.6-2.3 4.4-.7 6.3.9 1.1 2.2 1.7 3.5 1.7 1 0 2-.3 2.8-1l69.1-55.2 16.2 15.5c1.8 1.7 4.6 1.7 6.4-.1 1.7-1.8 1.7-4.6-.1-6.4L115 78.5zm146.9-48.6H38.1c-11.2 0-20.4 9.1-20.4 20.4v153.8c0 11.2 9.1 20.4 20.4 20.4h48.7c7.5 26.2 31.7 45.5 60.3 45.5s52.8-19.3 60.3-45.5h54.4c11.2 0 20.4-9.1 20.4-20.4V50.3c.1-11.2-9.1-20.4-20.3-20.4zM147.1 261.1c-29.7 0-53.8-24.1-53.8-53.8 0-29.7 24.1-53.8 53.8-53.8s53.8 24.1 53.8 53.8c.1 29.6-24.1 53.8-53.8 53.8zm126.2-56.9c0 6.3-5.1 11.4-11.4 11.4h-52.5c.4-2.7.6-5.5.6-8.3 0-34.6-28.2-62.8-62.8-62.8s-62.8 28.2-62.8 62.8c0 2.8.3 5.6.6 8.3H38.1c-6.3 0-11.4-5.1-11.4-11.4V129l84.9-69.6 79.5 76.1c.9.8 2 1.2 3.1 1.2s2.1-.4 3-1.1l38.5-34 37.5 30.6v72zm0-83.6l-34.8-28.4c-1.7-1.4-4.2-1.3-5.8.1l-38.2 33.8-79.4-76c-1.6-1.6-4.2-1.7-6-.2l-82.3 67.5V50.3c0-6.3 5.1-11.4 11.4-11.4H262c6.3 0 11.4 5.1 11.4 11.4v70.3h-.1z"/></svg>